{"title":"Spyfall (2014) AC3 English NTSC DVD Remux","uid":14831670,"size":3314100910,"categoryP":"video","categoryS":"movies","magnet":"?xt=urn:btih:876585b254114499309fd83da55e2d98e1ec703a&amp;dn=Spyfall+%282014%29+AC3+English+NTSC+DVD+Remux&amp;tr=udp%3A%2F%2Ftracker.leechers-paradise.org%3A6969&amp;tr=udp%3A%2F%2Fzer0day.ch%3A1337&amp;tr=udp%3A%2F%2Fopen.demonii.com%3A1337&amp;tr=udp%3A%2F%2Ftracker.coppersurfer.tk%3A6969&amp;tr=udp%3A%2F%2Fexodus.desync.com%3A6969","seeders":0,"leechers":0,"uploader":"fleischgemuese","files":1,"time":1465339764,"description":"Video\r\nID : 1\r\nFormat : MPEG Video\r\nFormat version : Version 2\r\nFormat profile :   \r\nFormat settings, BVOP : Yes\r\nFormat settings, Matrix : Custom\r\nFormat settings, GOP : M=3, N=12\r\nCodec ID : V_MPEG2\r\nCodec ID/Info : MPEG 1 or 2 Video\r\nBit rate mode : Variable\r\nBit rate : 4 873 Kbps\r\nMaximum bit rate : 7 500 Kbps\r\nWidth : 720 pixels\r\nHeight : 480 pixels\r\nDisplay aspect ratio : 16:9\r\nFrame rate mode : Variable\r\nOriginal frame rate : 23.976 fps\r\nStandard : NTSC\r\nColor space : YUV\r\nChroma subsampling : 4:2:0\r\nBit depth : 8 bits\r\nScan type : Progressive\r\nScan order : 2:3 Pulldown\r\nCompression mode : Lossy\r\nTime code of first frame : 00:00:00:00\r\nTime code source : Group of pictures header\r\nGOP, Open/Closed : Closed\r\nLanguage : English\r\nDefault : No\r\nForced : No\r\nColor primaries : BT.601 NTSC\r\nTransfer characteristics : BT.601\r\nMatrix coefficients : BT.601\r\n\r\nAudio #1\r\nID : 2\r\nFormat : AC-3\r\nFormat/Info : Audio Coding 3\r\nMode extension : CM (complete main)\r\nFormat settings, Endianness : Big\r\nCodec ID : A_AC3\r\nDuration : 1h 18mn\r\nBit rate mode : Constant\r\nBit rate : 448 Kbps\r\nChannel(s) : 6 channels\r\nChannel positions : Front: L C R, Side: L R, LFE\r\nSampling rate : 48.0 KHz\r\nBit depth : 16 bits\r\nCompression mode : Lossy\r\nStream size : 252 MiB (8%)\r\nTitle : Surround 5.1\r\nLanguage : English\r\nDefault : No\r\nForced : No\r\n\r\nAudio #2\r\nID : 3\r\nFormat : AC-3\r\nFormat/Info : Audio Coding 3\r\nMode extension : CM (complete main)\r\nFormat settings, Endianness : Big\r\nCodec ID : A_AC3\r\nDuration : 1h 18mn\r\nBit rate mode : Constant\r\nBit rate : 192 Kbps\r\nChannel(s) : 2 channels\r\nChannel positions : Front: L R\r\nSampling rate : 48.0 KHz\r\nBit depth : 16 bits\r\nCompression mode : Lossy\r\nStream size : 108 MiB (3%)\r\nTitle : Commentary\r\nLanguage : English\r\nDefault : No\r\nForced : No\r\n\r\nMenu\r\n00:00:00.000 : en:Chapter 01\r\n00:04:57.797 : en:Chapter 02\r\n00:09:36.576 : en:Chapter 03\r\n00:14:52.892 : en:Chapter 04\r\n00:19:52.691 : en:Chapter 05\r\n00:24:24.463 : en:Chapter 06\r\n00:29:56.795 : en:Chapter 07\r\n00:34:59.097 : en:Chapter 08\r\n00:39:57.395 : en:Chapter 09\r\n00:44:44.682 : en:Chapter 10\r\n00:50:02.499 : en:Chapter 11\r\n00:54:58.795 : en:Chapter 12\r\n01:00:14.611 : en:Chapter 13\r\n01:04:51.888 : en:Chapter 14\r\n01:10:14.210 : en:Chapter 15","torrent":{"xt":"urn:btih:876585b254114499309fd83da55e2d98e1ec703a","amp;dn":"Spyfall+%282014%29+AC3+English+NTSC+DVD+Remux","amp;tr":["udp%3A%2F%2Ftracker.leechers-paradise.org%3A6969","udp%3A%2F%2Fzer0day.ch%3A1337","udp%3A%2F%2Fopen.demonii.com%3A1337","udp%3A%2F%2Ftracker.coppersurfer.tk%3A6969","udp%3A%2F%2Fexodus.desync.com%3A6969"],"infoHash":"876585b254114499309fd83da55e2d98e1ec703a","infoHashBuffer":{"type":"Buffer","data":[135,101,133,178,84,17,68,153,48,159,216,61,165,94,45,152,225,236,112,58]},"announce":[],"urlList":[]}}